<svg width="512" height="512" viewBox="0 0 512 512" fill="none" xmlns="http://www.w3.org/2000/svg">
  <rect width="512" height="512" rx="132" fill="#262522"/>
  <path d="M156 313C156 247.83 208.83 195 274 195H333C333 260.17 280.17 313 215 313H156Z" fill="#E6CCB2"/>
  <path d="M179 337C179 271.83 231.83 219 297 219H356C356 284.17 303.17 337 238 337H179Z" fill="#D4A373"/>
  <path d="M155 190C155 168.461 172.461 151 194 151H245C245 215.065 193.065 267 129 267V216C129 201.641 140.641 190 155 190Z" fill="#FAFAED"/>
  <circle cx="177" cy="177" r="12" fill="#C97A53"/>
</svg>
